<svg width="88" height="70" viewBox="0 0 88 70" fill="none" xmlns="http://www.w3.org/2000/svg">
<g clip-path="url(#clip0_39_4)">
<path d="M87.6643 5.56319C87.687 1.50686 86.044 -0.000101425 81.9651 0.0225596C56.5847 0.135865 31.2043 0.169857 5.82392 -0.000101426C1.28037 -0.034093 -0.0226361 1.63149 2.49207e-05 5.94843C0.169983 25.2103 0.181313 44.4722 2.49207e-05 63.7228C-0.0452972 68.391 1.439 70.1019 6.22048 69.9886C18.4575 69.7166 30.6944 69.8979 42.9314 69.8979C55.8482 69.8979 68.765 69.762 81.6818 69.9659C86.1347 70.0339 87.6983 68.3456 87.6643 64.0061C87.551 44.5175 87.5623 25.0404 87.653 5.55186L87.6643 5.56319ZM69.2069 11.0925C60.7656 18.4233 53.1175 24.9497 45.6054 31.6347C43.5886 33.425 42.5008 32.1786 41.1185 30.9662C33.799 24.6211 26.4568 18.2987 18.1062 11.0925H69.2069V11.0925ZM72.912 59.5418C53.6614 59.4172 34.3995 59.4285 15.1489 59.5418C11.6818 59.5645 10.3901 58.4881 10.4468 54.885C10.6394 43.1126 10.5148 31.3401 10.5148 19.4771C13.744 18.7859 14.9677 21.5052 16.7012 22.9329C23.7035 28.6661 30.7171 34.422 37.3454 40.5745C42.0023 44.9028 45.6507 44.4949 50.2056 40.3932C58.5449 32.8698 67.292 25.7769 76.9683 17.5735C76.9683 31.1475 76.889 43.1352 77.025 55.1343C77.0589 58.2275 76.2998 59.5871 72.912 59.5645V59.5418Z" fill="#E1C8A6"/>
</g>
<defs>
<clipPath id="clip0_39_4">
<rect width="87.6756" height="70" fill="white"/>
</clipPath>
</defs>
</svg>
