<svg width="2050" height="1000" viewBox="0 0 2050 1000" fill="none" xmlns="http://www.w3.org/2000/svg">
<g clip-path="url(#clip0_43_3)">
<rect width="2048.04" height="1000" transform="translate(0.979034)" fill="black"/>
<path d="M4.80707 638.478C79.4442 638.478 115.643 601.16 115.643 557.497C115.643 461.588 -36.2433 494.802 -36.2433 446.661C-36.2433 430.241 -22.4355 416.806 13.3903 416.806C36.5278 416.806 61.5313 423.523 85.7883 437.331L104.448 391.429C80.1905 376.129 46.6038 368.292 13.7635 368.292C-60.5004 368.292 -96.3262 405.237 -96.3262 449.646C-96.3262 546.675 55.5603 513.088 55.5603 561.975C55.5603 578.022 41.0061 589.964 5.18025 589.964C-26.1673 589.964 -59.0077 578.769 -81.0256 562.722L-101.551 608.25C-78.4133 626.163 -36.6165 638.478 4.80707 638.478ZM336.082 372.77V475.769H217.409V372.77H156.953V634H217.409V526.896H336.082V634H396.538V372.77H336.082ZM584.854 638.478C666.955 638.478 727.784 581.381 727.784 503.385C727.784 425.389 666.955 368.292 584.854 368.292C502.38 368.292 441.924 425.762 441.924 503.385C441.924 581.008 502.38 638.478 584.854 638.478ZM584.854 586.979C538.206 586.979 503.126 553.019 503.126 503.385C503.126 453.751 538.206 419.792 584.854 419.792C631.502 419.792 666.582 453.751 666.582 503.385C666.582 553.019 631.502 586.979 584.854 586.979ZM1101.46 372.77L1040.63 557.87L980.92 372.77H924.943L863.367 556.377L804.404 372.77H741.708L827.541 634H892.102L951.439 457.11L1008.91 634H1073.84L1159.3 372.77H1101.46ZM1424.43 634L1365.84 550.033C1399.8 535.479 1419.58 506.744 1419.58 467.559C1419.58 408.969 1375.91 372.77 1306.13 372.77H1193.05V634H1253.51V561.229H1306.13H1309.11L1359.49 634H1424.43ZM1358.37 467.559C1358.37 495.921 1339.71 513.088 1302.77 513.088H1253.51V422.031H1302.77C1339.71 422.031 1358.37 438.824 1358.37 467.559ZM1527.56 585.486V525.03H1648.84V478.008H1527.56V421.284H1664.89V372.77H1467.48V634H1669.74V585.486H1527.56ZM1777.93 585.486V525.03H1899.21V478.008H1777.93V421.284H1915.26V372.77H1717.85V634H1920.11V585.486H1777.93ZM1968.21 634H2159.66V584.74H2028.67V372.77H1968.21V634Z" fill="#7F8583"/>
<path d="M1092.45 500.012C1092.45 534.816 1062.75 563.555 1025.46 563.555C988.164 563.555 958.469 534.816 958.469 500.012C958.469 465.207 988.164 436.469 1025.46 436.469C1062.75 436.469 1092.45 465.207 1092.45 500.012Z" stroke="white" stroke-width="12.9371"/>
<path d="M1050.23 495.859C1053.51 497.66 1053.51 502.363 1050.23 504.164L1016.32 522.825C1013.16 524.563 1009.3 522.278 1009.3 518.672V481.351C1009.3 477.746 1013.16 475.461 1016.32 477.199L1050.23 495.859Z" fill="#E5E5E5"/>
</g>
<defs>
<clipPath id="clip0_43_3">
<rect width="2048.04" height="1000" fill="white" transform="translate(0.979034)"/>
</clipPath>
</defs>
</svg>
